<svg width="300" height="194" viewBox="0 0 300 194" version="1.1" xmlns="http://www.w3.org/2000/svg" xmlns:xlink="http://www.w3.org/1999/xlink">
<title>Vm</title>
<desc>Created using Figma</desc>
<g id="Canvas" transform="translate(358 223)">
<g id="Vm">
<use xlink:href="#path0_fill" transform="translate(-467 -320)"/>
</g>
</g>
<defs>
<path id="path0_fill" d="M 273.85 193.096C 277.254 193.096 279.696 193.836 281.176 195.316C 282.804 196.796 283.618 198.72 283.618 201.088C 283.618 204.936 282.434 208.34 280.066 211.3C 277.846 214.26 274.294 215.814 269.41 215.962C 257.57 216.258 247.062 215.37 237.886 213.298C 227.378 235.35 214.65 253.702 199.702 268.354C 184.902 282.858 170.028 290.11 155.08 290.11C 139.688 290.11 128.218 281.156 120.67 263.248C 113.122 245.34 109.348 221.142 109.348 190.654C 109.348 164.606 111.198 141.222 114.898 120.502C 116.23 112.806 118.08 107.626 120.448 104.962C 122.964 102.15 127.182 100.744 133.102 100.744C 142.87 100.744 147.754 104.962 147.754 113.398C 147.754 114.286 147.606 115.914 147.31 118.282C 142.87 144.922 140.65 169.046 140.65 190.654C 140.65 213.298 142.5 230.54 146.2 242.38C 150.048 254.072 155.746 259.918 163.294 259.918C 170.99 259.918 179.352 254.59 188.38 243.934C 197.408 233.278 205.696 219.884 213.244 203.752C 204.216 198.128 197.408 190.876 192.82 181.996C 188.232 172.968 185.938 162.608 185.938 150.916C 185.938 139.224 187.714 129.382 191.266 121.39C 194.966 113.25 199.924 107.182 206.14 103.186C 212.504 99.19 219.534 97.192 227.23 97.192C 236.702 97.192 244.176 100.596 249.652 107.404C 255.276 114.212 258.088 123.536 258.088 135.376C 258.088 152.396 254.388 170.97 246.988 191.098C 254.832 192.43 263.786 193.096 273.85 193.096ZM 208.36 149.362C 208.36 163.866 213.022 174.596 222.346 181.552C 228.118 164.976 231.004 151.286 231.004 140.482C 231.004 134.266 230.19 129.752 228.562 126.94C 226.934 123.98 224.714 122.5 221.902 122.5C 217.906 122.5 214.65 124.868 212.134 129.604C 209.618 134.192 208.36 140.778 208.36 149.362ZM 277.778 290.11C 272.154 290.11 268.158 287.15 265.79 281.23C 263.57 275.31 262.46 265.838 262.46 252.814C 262.46 233.574 265.198 215.296 270.674 197.98C 272.006 193.688 274.152 190.58 277.112 188.656C 280.22 186.584 284.512 185.548 289.988 185.548C 292.948 185.548 295.02 185.918 296.204 186.658C 297.388 187.398 297.98 188.804 297.98 190.876C 297.98 193.244 296.87 198.572 294.65 206.86C 293.17 212.78 291.986 217.96 291.098 222.4C 290.21 226.692 289.47 232.094 288.878 238.606C 292.874 227.062 297.61 217.294 303.086 209.302C 308.71 201.31 314.408 195.39 320.18 191.542C 326.1 187.546 331.65 185.548 336.83 185.548C 342.01 185.548 345.636 186.732 347.708 189.1C 349.928 191.468 351.038 195.094 351.038 199.978C 351.038 204.714 349.632 213.298 346.82 225.73C 345.636 231.058 344.822 235.054 344.378 237.718C 349.262 225.286 354.664 215.148 360.584 207.304C 366.652 199.46 372.572 193.91 378.344 190.654C 384.116 187.25 389.444 185.548 394.328 185.548C 399.064 185.548 402.616 186.806 404.984 189.322C 407.5 191.69 408.758 195.242 408.758 199.978C 408.758 203.826 407.944 211.078 406.316 221.734C 404.836 230.762 403.652 239.346 402.764 247.486C 401.876 255.478 401.432 264.432 401.432 274.348C 401.432 279.972 400.248 284.042 397.88 286.558C 395.66 288.926 391.96 290.11 386.78 290.11C 381.896 290.11 378.344 288.852 376.124 286.336C 373.904 283.82 372.794 280.046 372.794 275.014C 372.794 269.094 373.83 259.326 375.902 245.71C 377.678 233.87 378.566 226.322 378.566 223.066C 378.566 220.698 377.752 219.514 376.124 219.514C 374.2 219.514 371.462 222.03 367.91 227.062C 364.358 231.946 360.806 238.458 357.254 246.598C 353.702 254.738 350.816 263.322 348.596 272.35C 346.968 279.454 345.044 284.19 342.824 286.558C 340.752 288.926 337.348 290.11 332.612 290.11C 327.728 290.11 324.028 287.816 321.512 283.228C 319.144 278.492 317.96 272.794 317.96 266.134C 317.96 260.51 318.7 252.37 320.18 241.714C 321.364 232.242 321.956 226.026 321.956 223.066C 321.956 220.698 321.142 219.514 319.514 219.514C 317.294 219.514 314.482 222.178 311.078 227.506C 307.674 232.834 304.344 239.642 301.088 247.93C 297.98 256.218 295.464 264.358 293.54 272.35C 291.912 279.306 289.988 284.042 287.768 286.558C 285.696 288.926 282.366 290.11 277.778 290.11Z"/>
</defs>
</svg>
