<?xml version="1.0" encoding="UTF-8" standalone="no"?>
<svg viewBox="0 0 177.34343 153.42975" xmlns="http://www.w3.org/2000/svg">
<defs>
<filter id="filter4179">
<feGaussianBlur stdDeviation=".73638"/>
</filter>
<linearGradient gradientUnits="userSpaceOnUse" id="linearGradient2653" x1="491.57457" x2="494.85842" y1="651.70893" y2="714.5809">
<stop offset="0" stop-color="#b3c5e3"/>
<stop offset="1" stop-color="#375f71"/>
</linearGradient>
<linearGradient gradientUnits="userSpaceOnUse" id="linearGradient2655" x1="-139.40105" x2="-111.84524" y1="490.71738" y2="632.13873">
<stop offset="0" stop-color="#fff"/>
<stop offset="1" stop-color="#fff" stop-opacity="0"/>
</linearGradient>
</defs>
<g transform="translate(-406.18675,-637.64015)">
<path d="m479.85003,637.64015c-15.08559,0-28.49716,7.19434-36.98404,18.34687-1.85315-.34635-3.76576-.52254-5.71889-.52254-17.09365,0-30.96035,13.86671-30.96035,30.96035s13.8667,30.97486 30.96035,30.97486c3.13593,0 6.1604-.46732 9.01378-1.33537 8.46496,8.90967 20.43864,14.47138 33.68915,14.47139 7.41404,0 14.42031-1.74 20.64023-4.83347 6.21993,3.09347 13.2262,4.83346 20.64024,4.83347 15.26867,0 28.82049-7.38341 37.28885-18.76781 13.88539-.11733 25.11083-11.43015 25.11083-25.34307 0-12.82371-9.53597-23.42203-21.90303-25.09631-7.96646-14.1387-23.12209-23.68837-40.49665-23.68837-7.41519,0-14.4196,1.7391-20.64024,4.83347-6.22064-3.09437-13.22505-4.83347-20.64023-4.83347z" fill="url(#linearGradient2653)" fill-rule="evenodd"/>
<path d="m-116.15625,516.8125c-28.48888,0-54.19726,13.85076-70.125,34.78125-2.76908,3.64414-7.18818,5.37014-11.6875,4.53125-3.26379-.61-6.64584-.9375-10.125-.9375-29.07836,0-54.71875,25.64045-54.71875,54.71875 0,3.82889.28827,5.13448.1875,3.53125 .87184,13.72815 10.87982,25.14751 24.375,27.8125 32.07089,6.34387 75.54751,3.47967 127.21875-9.34375 41.69565-10.34775 86.5702-26.17276 131.125-44 9.98469-4.00373 17.09886-13.00018 18.69306-23.6389s-2.57048-21.3253-10.94306-28.07985c-14.97081-12.05443-34.36065-19.375-55.125-19.375-13.95146,0-27.41827,3.3329-39.125,9.15625-3.37158,1.67708-7.25342,1.67708-10.625,0-11.70672-5.82335-25.17354-9.15625-39.125-9.15625z" fill="url(#linearGradient2655)" fill-rule="evenodd" transform="matrix(.46448,0,0,.46448,532.864,401.26)"/>
<path d="m475.40478,698.96269c9.69444,6.23893 22.7935,7.79651 42.69553,0-14.92893,14.8575-32.67159,27.46401-41.73608,47.01306h28.30378c-20.00677,14.01559-28.59911,29.93359-41.73608,45.09415 6.14095-11.99313 16.46965-26.20776 21.47637-38.20089l-20.99665,2.22151c7.84067-18.70928 13.07109-37.41855 11.99313-56.12783z" fill-rule="evenodd" filter="url(#filter4179)"/>
<path d="m475.40478,698.96269c9.69444,6.23893 22.7935,7.79651 42.69553,0-14.92893,14.8575-32.67159,27.46401-41.73608,47.01306h28.30378c-20.00677,14.01559-28.59911,29.93359-41.73608,45.09415 6.14095-11.99313 16.46965-26.20776 21.47637-38.20089l-20.99665,2.22151c7.84067-18.70928 13.07109-37.41855 11.99313-56.12783z" fill="#f2f2f2" fill-rule="evenodd"/>
</g>
</svg>
